<svg xmlns="http://www.w3.org/2000/svg" width="1200" height="630" viewBox="0 0 1200 630" fill="none">
  <rect width="1200" height="630" fill="#f5efe4"/>
  <circle cx="1060" cy="90" r="280" fill="#e2a23a" opacity=".12"/>
  <circle cx="70" cy="610" r="250" fill="#bd4b2b" opacity=".08"/>
  <rect x="64" y="64" width="1072" height="502" rx="34" fill="#1c1914"/>
  <rect x="64" y="64" width="15" height="502" rx="7" fill="#e2a23a"/>
  <rect x="112" y="108" width="48" height="48" rx="14" fill="#fff9ef"/>
  <path d="M138 118c1 7-7 10-7 20 0 6 4 10 9 10 6 0 10-4 10-10 0-5-3-10-9-15 1 4-1 7-4 9 1-5-1-10 1-14Z" fill="#bd4b2b"/>
  <text x="178" y="142" font-family="Arial, sans-serif" font-size="23" font-weight="700" letter-spacing="2.4" fill="#fffcf7">COOKED FINANCE</text>
  <text x="112" y="270" font-family="Georgia, serif" font-size="78" fill="#fffcf7">A financial health check</text>
  <text x="112" y="358" font-family="Georgia, serif" font-size="78" fill="#e2a23a">that shows your next move.</text>
  <text x="116" y="435" font-family="Arial, sans-serif" font-size="28" fill="#c8c0b5">Private. Transparent. No bank connection.</text>
  <line x1="116" y1="486" x2="1084" y2="486" stroke="#fffcf7" opacity=".16"/>
  <text x="116" y="526" font-family="Arial, sans-serif" font-size="21" fill="#9f988e">cookedfinance.com · Free educational calculators</text>
</svg>
